<?xml version="1.0" encoding="UTF-8" standalone="no"?><!DOCTYPE svg PUBLIC "-//W3C//DTD SVG 1.1//EN" "http://www.w3.org/Graphics/SVG/1.1/DTD/svg11.dtd"><svg width="100%" height="100%" viewBox="0 0 4934 2442" version="1.1" xmlns="http://www.w3.org/2000/svg" xmlns:xlink="http://www.w3.org/1999/xlink" xml:space="preserve" xmlns:serif="http://www.serif.com/" style="fill-rule:evenodd;clip-rule:evenodd;stroke-linejoin:round;stroke-miterlimit:2;"><g><path d="M2837.207,789.616c-32.546,37.656 -138.822,118.314 -143.991,122.63c-101.237,84.525 -102.428,82.812 -140.391,114.219c-127.63,105.566 -128.743,104.167 -139.733,113.47c-75.553,63.997 -85.553,66.849 -110.684,90.729c-12.617,11.204 -14.674,10.846 -25.82,20.234c-34.811,29.316 -75.931,62.298 -82.591,67.643c-93.568,75.046 -120.286,98.633 -146.413,119.687c-76.549,61.673 -76.549,61.53 -83.164,66.934c-98.646,80.579 -250.56,119.056 -403.255,59.668c-86.563,-33.672 -156.992,-95.098 -196.719,-155.664c-91.413,-139.362 -64.564,-269.336 -52.682,-314.043c22.617,-85.137 78.32,-144.141 88.086,-154.486c36.452,-38.613 90.111,-76.322 130.228,-110.299c49.74,-42.129 50.859,-40.56 101.38,-81.582c76.191,-61.875 83.092,-66.901 90.586,-72.37c11.237,-8.197 28.203,-24.629 97.227,-78.704c52.995,-41.51 52.096,-42.565 56.758,-46.1c34.199,-25.905 33.262,-26.771 57.832,-46.478c103.001,-82.591 102.025,-83.542 111.25,-90.345c64.766,-47.767 235.189,-192.52 271.113,-211.53c91.074,-48.184 169.004,-51.921 241.452,-47.533c33.665,2.038 111.517,23.262 148.223,43.906c106.979,60.15 145.462,132.539 155.664,148.542c35.938,56.367 56.204,138.255 57.676,174.811c2.617,65.124 -1.042,83.646 -12.591,129.486c-14.883,59.095 -48.125,111.628 -69.44,137.174Z" style="fill:#0b6b5a;"/></g><g><path d="M1376.576,1226.178c-8.587,-98.639 26.367,-158.066 35.664,-175.671c42.448,-80.365 114.759,-119.173 193.587,-183.991c52.754,-43.372 52.428,-43.581 57.057,-47.285c54.147,-43.216 54.128,-43.079 107.832,-86.81c46.68,-38.008 47.266,-37.051 90.69,-72.142c136.172,-110.046 136.51,-109.382 148.099,-119.232c73.776,-62.754 200.306,-159.922 262.194,-212.695c100.189,-85.43 165.137,-104.74 272.799,-100.586c57.63,2.227 129.284,39.668 135.443,43.288c36.042,21.152 36.445,20.801 66.042,50.156c91.354,90.605 93.73,177.201 97.93,208.079c9.323,68.529 -26.035,154.759 -34.173,168.346c-39.18,65.391 -83.451,92.819 -150.716,147.546c-76.23,62.018 -76.302,61.738 -82.917,67.142c-18.984,15.495 -91.152,76.589 -91.908,77.207c-27.148,22.337 -28.171,20.807 -55.293,43.112c-128.021,105.286 -129.102,103.809 -140.052,113.171c-81.126,69.355 -83.757,65.996 -165.632,134.577c-71.803,60.15 -72.467,59.18 -78.685,64.427c-83.398,70.378 -121.745,99.388 -132.643,107.63c-107.227,81.133 -207.07,67.839 -253.203,61.94c-55.885,-7.155 -258.099,-69.538 -282.116,-288.21Z" style="fill:#f3fdf8;"/></g><g><path d="M2016.68,626.517c32.331,-24.746 80.697,-71.458 117.708,-83.802c79.805,-26.608 135.527,43.151 155.697,65.059c50.02,54.336 50.449,53.665 100.853,107.747c62.298,66.836 74.629,87.63 71.055,139.577c-4.453,64.753 -47.995,92.025 -61.25,103.359c-35.059,29.98 -59.466,46.914 -65.26,51.882c-38.678,33.099 -39.609,31.816 -78.444,64.746c-11.882,10.072 -87.044,71.016 -103.594,85.345c-114.642,99.264 -205.417,-21.042 -227.995,-44.766c-117.93,-123.919 -127.969,-135.996 -138.346,-148.483c-1.406,-1.693 -53.763,-51.589 -14.453,-130.293c15.983,-32.005 22.051,-27.435 244.03,-210.371Z" style="fill:#ffdf9b;"/></g><g><path d="M2837.207,789.616c2.643,1.224 4.036,4.395 6.673,5.618c3.711,1.712 4.134,-2.031 39.342,3.717c-0.137,0.501 -1.061,0.495 -1.204,0.996c-1.667,5.879 -0.664,5.905 -2.422,11.803c-1.302,4.401 -1.549,4.303 -32.174,47.52c-9.284,13.092 -13.568,11.979 -11.686,22.65c0.938,5.332 19.036,3.275 27.682,3.255c22.728,-0.052 205.651,-1.973 215.339,0.54c17.962,4.648 14.87,11.719 14.85,131.888c-0.013,107.402 5.065,119.759 -10.182,127.884c-16.12,8.594 -183.626,1.126 -258.913,4.512c-38.763,1.745 -47.507,34.069 -48.431,43.014c-1.491,14.447 2.637,185.169 1.921,221.686c-0.82,41.738 -20.397,38.079 -70.846,37.956c-183.971,-0.449 -185.645,0.124 -193.164,-7.441c-12.741,-12.812 -6.25,-93.639 -9.193,-180.215c-1.576,-46.322 -53.783,-48.145 -81.732,-29.395c-6.51,4.362 -7.096,3.066 -7.585,3.522c-1.725,1.615 -1.413,4.733 -3.138,6.348c-37.689,-7.344 -38.027,-1.491 -76.374,-3.893c-18.079,-1.126 -17.878,-1.296 -19.44,-1.296c-6.224,0.026 -6.068,1.152 -6.504,0.859c-5.553,-3.789 -2.135,-6.745 -7.617,-10.482c25.13,-23.88 35.13,-26.732 110.684,-90.729c10.99,-9.303 12.103,-7.904 139.733,-113.47c37.962,-31.406 39.154,-29.694 140.391,-114.219c5.169,-4.316 111.445,-84.974 143.991,-122.63Z" style="fill:#b2e7cd;"/></g><g><path d="M1990.228,736.673c70.378,-54.017 138.346,-117.318 150.137,-123.398c52.656,-27.148 69.531,10.293 109.889,53.776c40.905,44.076 41.81,43.066 82.116,87.572c46.452,51.296 84.987,71.504 49.303,126.263c-9.303,14.284 -85.905,70.632 -214.141,176.686c-84.453,69.844 -84.473,70.983 -99.017,74.03c-39.818,8.34 -59.772,-22.799 -65.143,-28.809c-73.568,-82.227 -74.29,-81.536 -80.671,-88.698c-78.913,-88.438 -108.438,-96.543 -97.012,-134.121c7.78,-25.579 53.828,-53.672 114.303,-101.888c25.508,-20.345 25.143,-20.618 50.234,-41.413Z" style="fill:#fdfefd;"/></g><g><path d="M2883.223,798.952c11.96,-0.26 34.401,-0.749 149.46,-0.495c61.243,0.143 108.483,-8.835 145.482,55.065c13.691,23.646 7.988,25.71 9.284,235.69c0.404,65.176 6.387,100.495 -49.362,138.587c-27.793,18.991 -30.534,17.201 -235.618,17.103c-21.491,-0.013 -31.094,-3.848 -30.495,20.02c0.931,36.595 0.944,170.456 1.068,175.833c1.38,61.491 -44.518,89.785 -68.203,97.708c-21.25,7.116 -33.73,11.296 -279.967,8.32c-85.098,-1.029 -109.18,-63.802 -112.279,-92.871c-0.827,-7.76 -0.618,-193.079 -0.247,-208.437c1.725,-1.615 1.413,-4.733 3.138,-6.348c0.488,-0.456 1.074,0.84 7.585,-3.522c27.949,-18.75 80.156,-16.927 81.732,29.395c2.943,86.576 -3.548,167.402 9.193,180.215c7.52,7.565 9.193,6.992 193.164,7.441c50.449,0.124 70.026,3.783 70.846,-37.956c0.716,-36.517 -3.411,-207.24 -1.921,-221.686c0.924,-8.945 9.668,-41.27 48.431,-43.014c75.286,-3.385 242.793,4.082 258.913,-4.512c15.247,-8.125 10.169,-20.482 10.182,-127.884c0.02,-120.169 3.112,-127.24 -14.85,-131.888c-9.688,-2.513 -192.611,-0.592 -215.339,-0.54c-8.646,0.02 -26.745,2.077 -27.682,-3.255c-1.882,-10.671 2.402,-9.557 11.686,-22.65c30.625,-43.216 30.872,-43.118 32.174,-47.52c1.758,-5.898 0.755,-5.924 2.422,-11.803c0.143,-0.501 1.068,-0.495 1.204,-0.996Z" style="fill:#0b6b5a;"/></g><g><g><path d="M558.041,1563.868c44.174,0 80.316,6.024 109.431,19.075c28.111,13.051 53.209,29.115 75.296,46.182c14.055,10.04 24.095,11.043 31.122,4.016c7.028,-8.032 12.047,-26.103 14.055,-55.217l23.091,0c-1.004,25.099 -2.008,55.217 -3.012,91.36c0,35.138 -1.004,82.324 -1.004,141.557l-23.091,0c-4.016,-29.115 -9.036,-52.205 -13.051,-70.277c-4.016,-18.071 -9.036,-33.13 -15.059,-46.182c-7.028,-13.051 -15.059,-25.099 -26.103,-38.15c-20.079,-25.099 -45.178,-44.174 -75.296,-55.217c-29.115,-12.047 -61.241,-18.071 -93.367,-18.071c-34.134,0 -63.249,9.036 -90.356,26.103c-26.103,16.063 -48.19,40.158 -66.261,71.281c-19.075,31.122 -33.13,68.269 -43.17,111.439c-10.04,43.17 -15.059,91.36 -15.059,143.565c0,54.213 6.024,103.407 16.063,145.573c11.043,43.17 26.103,79.312 46.182,109.431c20.079,30.119 43.17,52.205 71.281,68.269c27.107,16.063 57.225,23.091 90.356,23.091c28.111,0 58.229,-5.02 89.352,-17.067c31.122,-11.043 56.221,-29.115 74.292,-54.213c16.063,-20.079 28.111,-41.162 34.134,-65.257c6.024,-24.095 12.047,-57.225 16.063,-99.391l23.091,0c0,61.241 1.004,110.435 1.004,148.585c1.004,37.146 2.008,68.269 3.012,94.371l-23.091,0c-2.008,-29.115 -7.028,-47.186 -13.051,-54.213c-7.028,-7.028 -17.067,-6.024 -32.126,3.012c-24.095,17.067 -51.202,33.13 -78.308,46.182c-28.111,12.047 -63.249,19.075 -107.423,19.075c-64.253,0 -121.478,-14.055 -169.668,-43.17c-49.194,-29.115 -87.344,-70.277 -113.446,-124.49c-27.107,-54.213 -41.162,-119.47 -41.162,-195.77c0,-75.296 14.055,-140.553 42.166,-196.774c28.111,-56.221 66.261,-100.395 115.454,-131.518c48.19,-31.122 104.411,-47.186 167.66,-47.186Z" style="fill:#0b6b5a;fill-rule:nonzero;"/></g><g><path d="M1020.862,1518.69c19.075,0 35.138,7.028 49.194,20.079c13.051,12.047 19.075,28.111 19.075,46.182c0,19.075 -6.024,35.138 -19.075,47.186c-14.055,13.051 -30.119,20.079 -49.194,20.079c-19.075,0 -35.138,-7.028 -49.194,-20.079c-13.051,-12.047 -20.079,-28.111 -20.079,-47.186c0,-18.071 7.028,-34.134 20.079,-46.182c14.055,-13.051 30.119,-20.079 49.194,-20.079Zm56.221,241.952l0,434.711c0,28.111 6.024,47.186 17.067,57.225c12.047,10.04 31.122,15.059 57.225,15.059l0,21.083c-11.043,-1.004 -29.115,-2.008 -52.205,-3.012c-24.095,-1.004 -47.186,-1.004 -71.281,-1.004c-23.091,0 -47.186,0 -70.277,1.004c-24.095,1.004 -42.166,2.008 -54.213,3.012l0,-21.083c27.107,0 46.182,-5.02 57.225,-15.059c12.047,-10.04 17.067,-29.115 17.067,-57.225l0,-314.237c0,-30.119 -5.02,-53.209 -15.059,-67.265c-11.043,-14.055 -30.119,-21.083 -59.233,-21.083l0,-21.083c22.087,2.008 42.166,3.012 62.245,3.012c21.083,0 41.162,-2.008 59.233,-4.016c19.075,-2.008 37.146,-6.024 52.205,-10.04Z" style="fill:#0b6b5a;fill-rule:nonzero;"/></g><g><path d="M1454.569,1757.63c22.087,0 43.17,2.008 63.249,8.032c21.083,5.02 39.154,13.051 54.213,23.091c16.063,10.04 28.111,22.087 36.142,36.142c9.036,13.051 13.051,28.111 13.051,44.174c0,19.075 -6.024,34.134 -17.067,44.174c-10.04,11.043 -24.095,16.063 -41.162,16.063c-16.063,0 -30.119,-5.02 -41.162,-14.055c-12.047,-9.036 -17.067,-23.091 -17.067,-40.158c0,-16.063 4.016,-29.115 13.051,-40.158c10.04,-10.04 20.079,-16.063 33.13,-19.075c-7.028,-11.043 -18.071,-21.083 -34.134,-28.111c-16.063,-8.032 -33.13,-11.043 -51.202,-11.043c-18.071,0 -35.138,4.016 -51.202,13.051c-17.067,8.032 -32.126,22.087 -45.178,41.162c-13.051,19.075 -24.095,44.174 -32.126,75.296c-9.036,31.122 -13.051,69.273 -13.051,114.45c0,58.229 7.028,103.407 20.079,137.541c14.055,34.134 31.122,58.229 52.205,73.288c22.087,14.055 45.178,21.083 70.277,21.083c17.067,0 34.134,-3.012 52.205,-9.036c17.067,-6.024 34.134,-17.067 50.198,-31.122c16.063,-15.059 29.115,-34.134 41.162,-59.233l19.075,7.028c-7.028,22.087 -18.071,44.174 -34.134,66.261c-15.059,22.087 -35.138,40.158 -61.241,55.217c-24.095,14.055 -55.217,21.083 -92.364,21.083c-41.162,0 -79.312,-10.04 -113.446,-31.122c-33.13,-21.083 -60.237,-52.205 -80.316,-91.36c-20.079,-40.158 -30.119,-88.348 -30.119,-144.569c0,-55.217 10.04,-104.411 30.119,-146.577c20.079,-41.162 48.19,-73.288 84.332,-97.383c36.142,-23.091 76.3,-34.134 122.482,-34.134Z" style="fill:#0b6b5a;fill-rule:nonzero;"/></g><g><path d="M1834.063,2295.748c-28.111,0 -52.205,-5.02 -72.284,-16.063c-20.079,-10.04 -35.138,-25.099 -45.178,-44.174c-11.043,-18.071 -16.063,-40.158 -16.063,-64.253c0,-29.115 7.028,-53.209 21.083,-72.284c13.051,-18.071 31.122,-33.13 52.205,-45.178c21.083,-11.043 43.17,-20.079 67.265,-28.111c24.095,-8.032 46.182,-15.059 67.265,-22.087c21.083,-7.028 39.154,-15.059 52.205,-25.099c14.055,-9.036 21.083,-21.083 21.083,-37.146l0,-64.253c0,-27.107 -4.016,-47.186 -12.047,-61.241c-8.032,-15.059 -19.075,-25.099 -32.126,-30.119c-14.055,-6.024 -29.115,-8.032 -47.186,-8.032c-16.063,0 -33.13,2.008 -51.202,6.024c-18.071,5.02 -33.13,14.055 -44.174,28.111c14.055,3.012 26.103,10.04 35.138,21.083c10.04,12.047 14.055,26.103 14.055,42.166c0,18.071 -5.02,32.126 -17.067,42.166c-11.043,10.04 -26.103,16.063 -43.17,16.063c-20.079,0 -35.138,-7.028 -45.178,-20.079c-9.036,-12.047 -14.055,-27.107 -14.055,-43.17c0,-18.071 4.016,-32.126 13.051,-43.17c9.036,-11.043 20.079,-22.087 34.134,-31.122c16.063,-11.043 36.142,-20.079 61.241,-27.107c25.099,-8.032 53.209,-11.043 83.328,-11.043c28.111,0 52.205,3.012 72.284,9.036c20.079,6.024 37.146,16.063 51.202,29.115c17.067,16.063 28.111,35.138 33.13,58.229c5.02,23.091 8.032,51.202 8.032,83.328l0,278.094c0,16.063 2.008,28.111 7.028,36.142c5.02,7.028 12.047,10.04 22.087,10.04c7.028,0 14.055,-1.004 21.083,-5.02c6.024,-3.012 14.055,-8.032 23.091,-15.059l11.043,17.067c-14.055,11.043 -28.111,20.079 -42.166,27.107c-13.051,7.028 -31.122,10.04 -52.205,10.04c-21.083,0 -37.146,-3.012 -50.198,-10.04c-13.051,-7.028 -23.091,-17.067 -29.115,-29.115c-7.028,-13.051 -10.04,-29.115 -10.04,-49.194c-17.067,29.115 -39.154,51.202 -63.249,66.261c-25.099,15.059 -53.209,22.087 -84.332,22.087Zm41.162,-44.174c21.083,0 40.158,-6.024 58.229,-17.067c17.067,-12.047 33.13,-30.119 48.19,-53.209l0,-198.782c-8.032,11.043 -19.075,21.083 -34.134,29.115c-14.055,7.028 -30.119,15.059 -47.186,23.091c-17.067,8.032 -33.13,17.067 -48.19,27.107c-16.063,10.04 -29.115,24.095 -39.154,40.158c-10.04,16.063 -15.059,37.146 -15.059,63.249c0,26.103 7.028,47.186 21.083,63.249c14.055,15.059 33.13,23.091 56.221,23.091Z" style="fill:#0b6b5a;fill-rule:nonzero;"/></g><g><path d="M2363.145,1605.03l0,167.66l143.565,0l0,20.079l-143.565,0l0,390.537c0,30.119 6.024,50.198 16.063,62.245c11.043,12.047 26.103,18.071 45.178,18.071c19.075,0 35.138,-7.028 49.194,-22.087c14.055,-15.059 27.107,-41.162 37.146,-77.304l20.079,6.024c-8.032,37.146 -21.083,68.269 -41.162,94.371c-20.079,25.099 -50.198,38.15 -90.356,38.15c-23.091,0 -42.166,-3.012 -57.225,-9.036c-15.059,-5.02 -28.111,-13.051 -39.154,-24.095c-15.059,-15.059 -25.099,-34.134 -31.122,-55.217c-5.02,-21.083 -8.032,-50.198 -8.032,-85.336l0,-336.324l-94.371,0l0,-20.079l94.371,0l0,-150.593c19.075,-1.004 36.142,-2.008 53.209,-5.02c17.067,-2.008 32.126,-6.024 46.182,-12.047Z" style="fill:#0b6b5a;fill-rule:nonzero;"/></g><g><path d="M2868.133,1757.63c18.071,0 34.134,3.012 48.19,11.043c14.055,8.032 24.095,18.071 32.126,30.119c7.028,12.047 11.043,25.099 11.043,40.158c0,18.071 -6.024,33.13 -17.067,47.186c-11.043,13.051 -25.099,19.075 -44.174,19.075c-15.059,0 -29.115,-4.016 -40.158,-14.055c-11.043,-9.036 -16.063,-23.091 -16.063,-40.158c0,-13.051 3.012,-25.099 11.043,-35.138c7.028,-9.036 15.059,-17.067 24.095,-23.091c-5.02,-6.024 -12.047,-8.032 -22.087,-8.032c-19.075,0 -37.146,6.024 -53.209,18.071c-17.067,12.047 -31.122,27.107 -42.166,45.178c-11.043,18.071 -20.079,37.146 -26.103,58.229c-7.028,20.079 -10.04,39.154 -10.04,57.225l0,221.873c0,33.13 9.036,54.213 28.111,65.257c18.071,11.043 44.174,17.067 76.3,17.067l0,21.083c-15.059,-1.004 -37.146,-2.008 -65.257,-3.012c-28.111,-1.004 -58.229,-1.004 -90.356,-1.004c-23.091,0 -46.182,0 -69.273,1.004c-24.095,1.004 -41.162,2.008 -53.209,3.012l0,-21.083c27.107,0 46.182,-5.02 57.225,-15.059c12.047,-10.04 17.067,-29.115 17.067,-57.225l0,-314.237c0,-30.119 -5.02,-53.209 -15.059,-67.265c-11.043,-14.055 -30.119,-21.083 -59.233,-21.083l0,-21.083c22.087,2.008 42.166,3.012 62.245,3.012c21.083,0 41.162,-2.008 59.233,-4.016c19.075,-2.008 37.146,-6.024 52.205,-10.04l0,119.47c8.032,-19.075 18.071,-38.15 32.126,-57.225c13.051,-18.071 30.119,-34.134 49.194,-47.186c19.075,-12.047 40.158,-18.071 63.249,-18.071Z" style="fill:#0b6b5a;fill-rule:nonzero;"/></g><g><path d="M3118.116,1518.69c19.075,0 35.138,7.028 49.194,20.079c13.051,12.047 19.075,28.111 19.075,46.182c0,19.075 -6.024,35.138 -19.075,47.186c-14.055,13.051 -30.119,20.079 -49.194,20.079c-19.075,0 -35.138,-7.028 -49.194,-20.079c-13.051,-12.047 -20.079,-28.111 -20.079,-47.186c0,-18.071 7.028,-34.134 20.079,-46.182c14.055,-13.051 30.119,-20.079 49.194,-20.079Zm56.221,241.952l0,434.711c0,28.111 6.024,47.186 17.067,57.225c12.047,10.04 31.122,15.059 57.225,15.059l0,21.083c-11.043,-1.004 -29.115,-2.008 -52.205,-3.012c-24.095,-1.004 -47.186,-1.004 -71.281,-1.004c-23.091,0 -47.186,0 -70.277,1.004c-24.095,1.004 -42.166,2.008 -54.213,3.012l0,-21.083c27.107,0 46.182,-5.02 57.225,-15.059c12.047,-10.04 17.067,-29.115 17.067,-57.225l0,-314.237c0,-30.119 -5.02,-53.209 -15.059,-67.265c-11.043,-14.055 -30.119,-21.083 -59.233,-21.083l0,-21.083c22.087,2.008 42.166,3.012 62.245,3.012c21.083,0 41.162,-2.008 59.233,-4.016c19.075,-2.008 37.146,-6.024 52.205,-10.04Z" style="fill:#0b6b5a;fill-rule:nonzero;"/></g><g><path d="M3712.456,1766.666l-284.118,506.995l101.399,0c26.103,0 50.198,-5.02 70.277,-16.063c20.079,-11.043 36.142,-28.111 49.194,-52.205c13.051,-24.095 20.079,-56.221 23.091,-96.379l23.091,0c0,44.174 0,80.316 1.004,110.435c0,30.119 1.004,54.213 3.012,73.288c-30.119,-1.004 -60.237,-2.008 -92.364,-3.012c-32.126,-1.004 -64.253,-1.004 -95.375,-1.004c-34.134,0 -68.269,1.004 -103.407,2.008c-35.138,1.004 -68.269,2.008 -100.395,3.012l283.114,-506.995l-101.399,0c-29.115,0 -53.209,5.02 -73.288,16.063c-20.079,11.043 -36.142,28.111 -47.186,52.205c-11.043,24.095 -18.071,56.221 -22.087,96.379l-22.087,0c0,-45.178 -1.004,-81.32 -1.004,-111.439c-1.004,-29.115 -2.008,-53.209 -3.012,-72.284c29.115,1.004 60.237,2.008 92.364,3.012c32.126,0 63.249,1.004 95.375,1.004c33.13,0 68.269,-1.004 102.403,-2.008c35.138,-1.004 69.273,-2.008 101.399,-3.012Z" style="fill:#0b6b5a;fill-rule:nonzero;"/></g><g><path d="M3919.269,2295.748c-28.111,0 -52.205,-5.02 -72.284,-16.063c-20.079,-10.04 -35.138,-25.099 -45.178,-44.174c-11.043,-18.071 -16.063,-40.158 -16.063,-64.253c0,-29.115 7.028,-53.209 21.083,-72.284c13.051,-18.071 31.122,-33.13 52.205,-45.178c21.083,-11.043 43.17,-20.079 67.265,-28.111c24.095,-8.032 46.182,-15.059 67.265,-22.087c21.083,-7.028 39.154,-15.059 52.205,-25.099c14.055,-9.036 21.083,-21.083 21.083,-37.146l0,-64.253c0,-27.107 -4.016,-47.186 -12.047,-61.241c-8.032,-15.059 -19.075,-25.099 -32.126,-30.119c-14.055,-6.024 -29.115,-8.032 -47.186,-8.032c-16.063,0 -33.13,2.008 -51.202,6.024c-18.071,5.02 -33.13,14.055 -44.174,28.111c14.055,3.012 26.103,10.04 35.138,21.083c10.04,12.047 14.055,26.103 14.055,42.166c0,18.071 -5.02,32.126 -17.067,42.166c-11.043,10.04 -26.103,16.063 -43.17,16.063c-20.079,0 -35.138,-7.028 -45.178,-20.079c-9.036,-12.047 -14.055,-27.107 -14.055,-43.17c0,-18.071 4.016,-32.126 13.051,-43.17c9.036,-11.043 20.079,-22.087 34.134,-31.122c16.063,-11.043 36.142,-20.079 61.241,-27.107c25.099,-8.032 53.209,-11.043 83.328,-11.043c28.111,0 52.205,3.012 72.284,9.036c20.079,6.024 37.146,16.063 51.202,29.115c17.067,16.063 28.111,35.138 33.13,58.229c5.02,23.091 8.032,51.202 8.032,83.328l0,278.094c0,16.063 2.008,28.111 7.028,36.142c5.02,7.028 12.047,10.04 22.087,10.04c7.028,0 14.055,-1.004 21.083,-5.02c6.024,-3.012 14.055,-8.032 23.091,-15.059l11.043,17.067c-14.055,11.043 -28.111,20.079 -42.166,27.107c-13.051,7.028 -31.122,10.04 -52.205,10.04c-21.083,0 -37.146,-3.012 -50.198,-10.04c-13.051,-7.028 -23.091,-17.067 -29.115,-29.115c-7.028,-13.051 -10.04,-29.115 -10.04,-49.194c-17.067,29.115 -39.154,51.202 -63.249,66.261c-25.099,15.059 -53.209,22.087 -84.332,22.087Zm41.162,-44.174c21.083,0 40.158,-6.024 58.229,-17.067c17.067,-12.047 33.13,-30.119 48.19,-53.209l0,-198.782c-8.032,11.043 -19.075,21.083 -34.134,29.115c-14.055,7.028 -30.119,15.059 -47.186,23.091c-17.067,8.032 -33.13,17.067 -48.19,27.107c-16.063,10.04 -29.115,24.095 -39.154,40.158c-10.04,16.063 -15.059,37.146 -15.059,63.249c0,26.103 7.028,47.186 21.083,63.249c14.055,15.059 33.13,23.091 56.221,23.091Z" style="fill:#0b6b5a;fill-rule:nonzero;"/></g></g><g><path d="M1725.228,1367.78c-7.266,-8.835 -8.796,-7.832 -12.331,-18.685c-3.073,-9.46 0.391,-16.302 1.029,-17.552c13.9,-27.435 54.928,-36.654 65.599,5.801c4.362,17.344 -14.342,36.257 -29.336,38.678c-13.574,2.194 -13.112,-1.191 -24.961,-8.242Z" style="fill:#83c9ad;"/></g><g><path d="M1669.935,1256.12c-2.188,1.556 -15.286,14.844 -30.755,9.577c-2.715,-0.924 -36.784,-19.668 -12.878,-52.923c10.586,-14.72 43.893,-21.797 54.648,5.651c8.483,21.654 -6.758,32.702 -11.016,37.695Z" style="fill:#7eccaf;"/></g><g><path d="M1665.84,1020.221c9.805,1.406 10.117,-0.02 18.984,4.232c34.954,16.751 9.577,67.943 -18.906,62.201c-9.355,-1.888 -43.236,-22.259 -25.26,-48.717c8.926,-13.132 10.228,-12.018 25.182,-17.715Z" style="fill:#76c7af;"/></g><g><path d="M2474.889,586.439c-4.74,-10.306 -13.359,-18.698 10.241,-38.483c35.15,-29.473 68.926,21.484 40.384,47.148c-24.766,22.266 -37.904,7.415 -50.625,-8.665Z" style="fill:#71bba5;"/></g><g><path d="M1776.452,1131.159c2.188,0.306 4.414,0.234 6.602,0.547c35.358,5.013 39.349,52.279 5.189,65.241c-19.635,7.448 -54.154,-21.947 -36.484,-48.171c11.445,-16.979 23.281,-17.103 24.694,-17.617Z" style="fill:#84c2a7;"/></g><g><path d="M1893.652,1304.616c-0.508,0.111 -17.956,8.587 -33.424,-6.439c-30.254,-29.388 4.329,-61.204 27.292,-55.189c22.422,5.872 39.251,37.09 10.898,58.906c-1.452,1.113 -3.32,1.608 -4.766,2.721Z" style="fill:#81cdb4;"/></g><g><path d="M1578.079,1135.046c-0.182,0.918 0.768,5.547 -2.656,13.314c-3.958,8.978 -23.913,29.232 -38.698,22.292c-24.128,-11.328 -32.402,-41.374 -6.888,-60.462c1.152,-0.859 20.221,-12.415 38.132,4.915c8.242,7.975 6.191,9.147 10.111,19.941Z" style="fill:#80ccb4;"/></g><g><path d="M2424.642,464.538c-0.104,0.677 0.84,5.801 -2.174,13.457c-4.844,12.292 -28.138,35.352 -54.622,6.406c-27.337,-29.87 25.286,-75.97 51.96,-32.728c0.579,0.938 0.358,0.951 4.837,12.865Z" style="fill:#73c8aa;"/></g><g><path d="M2506.875,742.676c-6.732,-9.642 -8.704,-8.796 -9.967,-17.78c-0.208,-1.465 -1.315,-9.31 4.759,-17.865c31.615,-44.538 79.531,15.241 49.186,37.044c-26.419,18.984 -37.741,3.262 -43.978,-1.4Z" style="fill:#6ec7af;"/></g><g><path d="M2615.306,516.628c-0.404,-2.604 -2.305,-4.818 -2.708,-7.415c-2.839,-18.223 27.24,-45.423 47.201,-29.616c37.168,29.434 3.737,63.607 -23.919,55.293c-13.646,-4.102 -11.914,-6.836 -20.573,-18.262Z" style="fill:#73c6a9;"/></g><g><path d="M2655.384,679.688c-0.99,0.215 -19.531,11.849 -36.673,-15.299c-20.436,-32.37 33.926,-69.466 54.753,-23.952c4.297,9.382 1.335,17.52 0.814,18.945c-4.883,13.424 -7.611,11.335 -18.893,20.306Z" style="fill:#81c3a9;"/></g><g><path d="M2512.025,386.27c5.729,-4.408 17.298,-14.974 34.18,-2.773c42.448,30.677 -5.885,77.435 -37.591,44.876c-19.499,-20.026 -2.578,-35.501 3.411,-42.103Z" style="fill:#71ceb1;"/></g><g><g transform="matrix(895.998935,0,0,895.998935,4792.259811,2328.618798)"></g><text x="4269.01px" y="2328.619px" style="font-family:'ArialMT', 'Arial', sans-serif;font-size:895.999px;fill:#c8952a;">+</text></g></svg>